<?xml version="1.0" encoding="UTF-8" standalone="no"?>
<!-- Created with Inkscape (http://www.inkscape.org/) -->

<svg
   xmlns:dc="http://purl.org/dc/elements/1.1/"
   xmlns:cc="http://creativecommons.org/ns#"
   xmlns:rdf="http://www.w3.org/1999/02/22-rdf-syntax-ns#"
   xmlns:svg="http://www.w3.org/2000/svg"
   xmlns="http://www.w3.org/2000/svg"
   xmlns:sodipodi="http://sodipodi.sourceforge.net/DTD/sodipodi-0.dtd"
   xmlns:inkscape="http://www.inkscape.org/namespaces/inkscape"
   width="527.763"
   height="223.05864"
   id="svg2"
   version="1.1"
   inkscape:version="0.48.2 r9819"
   sodipodi:docname="dotnetfringe-2016-tshrit.svg"
   inkscape:export-filename="/Users/thoward/github/dotnetfringe/dotnetfringe.github.io/img/vector/dotnetfringe-2016-tshirt-mockup.png"
   inkscape:export-xdpi="30.008234"
   inkscape:export-ydpi="30.008234">
  <defs
     id="defs4">
    <inkscape:perspective
       sodipodi:type="inkscape:persp3d"
       inkscape:vp_x="0 : 526.18109 : 1"
       inkscape:vp_y="0 : 1000 : 0"
       inkscape:vp_z="744.09448 : 526.18109 : 1"
       inkscape:persp3d-origin="372.04724 : 350.78739 : 1"
       id="perspective2447" />
    <inkscape:perspective
       id="perspective10"
       inkscape:persp3d-origin="372.04724 : 350.78739 : 1"
       inkscape:vp_z="744.09448 : 526.18109 : 1"
       inkscape:vp_y="0 : 1000 : 0"
       inkscape:vp_x="0 : 526.18109 : 1"
       sodipodi:type="inkscape:persp3d" />
    <inkscape:perspective
       sodipodi:type="inkscape:persp3d"
       inkscape:vp_x="0 : 526.18109 : 1"
       inkscape:vp_y="0 : 1000 : 0"
       inkscape:vp_z="744.09448 : 526.18109 : 1"
       inkscape:persp3d-origin="372.04724 : 350.78739 : 1"
       id="perspective10-0" />
    <inkscape:perspective
       id="perspective2447-0"
       inkscape:persp3d-origin="372.04724 : 350.78739 : 1"
       inkscape:vp_z="744.09448 : 526.18109 : 1"
       inkscape:vp_y="0 : 1000 : 0"
       inkscape:vp_x="0 : 526.18109 : 1"
       sodipodi:type="inkscape:persp3d" />
    <inkscape:perspective
       sodipodi:type="inkscape:persp3d"
       inkscape:vp_x="0 : 526.18109 : 1"
       inkscape:vp_y="0 : 1000 : 0"
       inkscape:vp_z="744.09448 : 526.18109 : 1"
       inkscape:persp3d-origin="372.04724 : 350.78739 : 1"
       id="perspective10-5" />
    <inkscape:perspective
       id="perspective2447-5"
       inkscape:persp3d-origin="372.04724 : 350.78739 : 1"
       inkscape:vp_z="744.09448 : 526.18109 : 1"
       inkscape:vp_y="0 : 1000 : 0"
       inkscape:vp_x="0 : 526.18109 : 1"
       sodipodi:type="inkscape:persp3d" />
  </defs>
  <sodipodi:namedview
     id="base"
     pagecolor="#ffffff"
     bordercolor="#666666"
     borderopacity="1.0"
     inkscape:pageopacity="0.0"
     inkscape:pageshadow="2"
     inkscape:zoom="0.43243815"
     inkscape:cx="122.06676"
     inkscape:cy="73.008708"
     inkscape:document-units="px"
     inkscape:current-layer="text3483"
     showgrid="false"
     units="px"
     inkscape:window-width="925"
     inkscape:window-height="693"
     inkscape:window-x="90"
     inkscape:window-y="62"
     inkscape:window-maximized="0"
     fit-margin-top="0"
     fit-margin-left="0"
     fit-margin-right="0"
     fit-margin-bottom="0"
     showguides="false"
     inkscape:guide-bbox="true"
     showborder="true">
    <sodipodi:guide
       orientation="1,0"
       position="102.33538,-22.699899"
       id="guide4373" />
    <sodipodi:guide
       orientation="1,0"
       position="262.24219,-45.434559"
       id="guide4375" />
    <sodipodi:guide
       orientation="0,1"
       position="205.47841,53.92864"
       id="guide4379" />
    <sodipodi:guide
       orientation="0,1"
       position="262.24219,-96.292578"
       id="guide4381" />
    <sodipodi:guide
       orientation="1,0"
       position="111.526,106.69438"
       id="guide3132" />
  </sodipodi:namedview>
  <metadata
     id="metadata7">
    <rdf:RDF>
      <cc:Work
         rdf:about="">
        <dc:format>image/svg+xml</dc:format>
        <dc:type
           rdf:resource="http://purl.org/dc/dcmitype/StillImage" />
        <dc:title></dc:title>
      </cc:Work>
    </rdf:RDF>
  </metadata>
  <!-- transform="translate(-104.40808,91.203418)"> -->
  <!-- transform="matrix(0.93969262,-0.34202014,0.34202014,0.93969262,0,0)" -->
  <g
     inkscape:label="Layer 1"
     inkscape:groupmode="layer"
     id="layer1"
     transform="translate(73.808398,244.10443)">
    <g
       style="font-size:63.50114059px;font-style:normal;font-variant:normal;font-weight:bold;font-stretch:normal;line-height:125%;letter-spacing:0px;word-spacing:0px;fill:#000000;fill-opacity:1;stroke:none;font-family:Intro Cond;-inkscape-font-specification:Intro Cond Bold"
       id="text3483">
      <path
         inkscape:connector-curvature="0"
         id="path3525"
         style="font-size:48.36570358px;font-style:normal;font-variant:normal;font-weight:bold;font-stretch:normal;line-height:125%;letter-spacing:0px;word-spacing:0px;fill:#d0b761;fill-opacity:1;stroke:none;font-family:Intro Cond;-inkscape-font-specification:Intro Cond Bold"
         d="M -11.682583,-216.16924 -7.4785949,-211.96524 -22.737567,-194.05932 -7.7900049,-176.62049 -11.838295,-172.26079 -26.941555,-189.69961 -41.733406,-172.10508 -45.781705,-176.30908 -30.522739,-193.90361 -46.093107,-211.96524 -42.044839,-216.16924 -26.630153,-198.26331 -11.682583,-216.16924 M -73.808398,-194.05932 C -73.808398,-168.05681 -52.788352,-147.03678 -26.785874,-147.03678 -0.78335728,-147.03678 20.392374,-168.05681 20.392374,-194.05932 20.392374,-220.06181 -0.78335728,-241.23754 -26.785874,-241.23754 -52.788352,-241.23754 -73.808398,-220.06181 -73.808398,-194.05932" />
      <path
         inkscape:connector-curvature="0"
         id="path3527"
         style="font-size:63.50114059px;font-style:normal;font-variant:normal;font-weight:bold;font-stretch:normal;line-height:125%;letter-spacing:0px;word-spacing:0px;fill:none;stroke:#d0b761;stroke-width:3.10463071;stroke-miterlimit:4;stroke-opacity:1;stroke-dasharray:none;font-family:Intro Cond;-inkscape-font-specification:Intro Cond Bold"
         d="M 67.785339,-146.40315 67.785339,-192.84337 117.18349,-145.7222 125.44404,-145.7222 125.44404,-241.73498 96.862513,-241.73498 96.862513,-196.24808 48.125224,-242.55211 39.2038,-242.55211 39.2038,-146.40315 67.785339,-146.40315" />
      <path
         inkscape:connector-curvature="0"
         id="path3529"
         style="font-size:63.50114059px;font-style:normal;font-variant:normal;font-weight:bold;font-stretch:normal;line-height:125%;letter-spacing:0px;word-spacing:0px;fill:none;stroke:#d0b761;stroke-width:3.10463071;stroke-miterlimit:4;stroke-opacity:1;stroke-dasharray:none;font-family:Intro Cond;-inkscape-font-specification:Intro Cond Bold"
         d="M 168.08731,-220.14913 201.79038,-220.14913 201.79038,-241.80307 139.67099,-241.80307 139.67099,-146.47124 203.1121,-146.47124 203.1121,-169.2147 168.08731,-169.2147 168.08731,-184.74016 198.8166,-184.74016 198.8166,-206.5303 168.08731,-206.5303 168.08731,-220.14913" />
      <path
         inkscape:connector-curvature="0"
         id="path3531"
         style="font-size:63.50114059px;font-style:normal;font-variant:normal;font-weight:bold;font-stretch:normal;line-height:125%;letter-spacing:0px;word-spacing:0px;fill:none;stroke:#d0b761;stroke-width:3.10463071;stroke-miterlimit:4;stroke-opacity:1;stroke-dasharray:none;font-family:Intro Cond;-inkscape-font-specification:Intro Cond Bold"
         d="M 216.0015,-241.80307 216.0015,-220.01294 238.80065,-220.01294 238.80065,-146.47124 266.55615,-146.47124 266.55615,-220.01294 289.19006,-220.01294 289.19006,-241.80307 216.0015,-241.80307" />
      <g
         id="g3124"
         transform="translate(93.53374,0)">
        <path
           d="M -45.25597,-51.904387 -22.013539,-51.904387 -17.811509,-72.914502 -41.053961,-72.914502 -36.983238,-93.268047 -10.326671,-93.268047 -6.1246388,-114.14685 -55.498403,-114.14685 -73.882257,-22.227604 -51.165068,-22.227604 -45.25597,-51.904387"
           style="font-size:63.50114059px;font-style:italic;font-variant:normal;font-weight:bold;font-stretch:normal;line-height:125%;letter-spacing:0px;word-spacing:0px;fill:#d0b761;fill-opacity:1;stroke:none;font-family:Intro Cond;-inkscape-font-specification:Intro Cond Bold Italic"
           id="path3533"
           inkscape:connector-curvature="0" />
        <path
           d="M 60.796237,-22.201373 61.058896,-23.383188 52.129575,-56.736744 C 61.45282,-62.777144 65.917473,-71.049893 68.149803,-81.554938 71.957889,-100.98927 62.24069,-113.9893 43.594246,-113.9893 L 11.159858,-113.9893 -7.2239886,-22.201373 15.4932,-22.201373 21.27098,-50.958961 29.937658,-50.958961 35.978067,-22.201373 60.796237,-22.201373 M 24.816438,-70.524629 29.281083,-93.241814 39.260896,-93.241814 C 44.776047,-93.241814 47.664953,-88.777159 46.2205,-82.080192 44.907373,-75.120599 40.311386,-70.524629 34.796242,-70.524629 L 24.816438,-70.524629"
           style="font-size:63.50114059px;font-style:italic;font-variant:normal;font-weight:bold;font-stretch:normal;line-height:125%;letter-spacing:0px;word-spacing:0px;fill:#d0b761;fill-opacity:1;stroke:none;font-family:Intro Cond;-inkscape-font-specification:Intro Cond Bold Italic"
           id="path3535"
           inkscape:connector-curvature="0" />
        <path
           d="M 109.08314,-22.227604 113.02254,-41.661957 103.6993,-41.661957 114.20437,-94.71249 122.60841,-94.71249 126.54778,-114.14685 87.153823,-114.14685 83.21445,-94.71249 91.48715,-94.71249 80.98212,-41.661957 71.790177,-41.661957 67.850804,-22.227604 109.08314,-22.227604"
           style="font-size:63.50114059px;font-style:italic;font-variant:normal;font-weight:bold;font-stretch:normal;line-height:125%;letter-spacing:0px;word-spacing:0px;fill:#d0b761;fill-opacity:1;stroke:none;font-family:Intro Cond;-inkscape-font-specification:Intro Cond Bold Italic"
           id="path3537"
           inkscape:connector-curvature="0" />
        <path
           d="M 145.9791,-22.227604 154.90843,-67.005407 185.11044,-21.571038 191.6761,-21.571038 210.19128,-114.14685 187.47406,-114.14685 178.67607,-70.288238 148.86798,-114.93473 141.77707,-114.93473 123.26192,-22.227604 145.9791,-22.227604"
           style="font-size:63.50114059px;font-style:italic;font-variant:normal;font-weight:bold;font-stretch:normal;line-height:125%;letter-spacing:0px;word-spacing:0px;fill:#d0b761;fill-opacity:1;stroke:none;font-family:Intro Cond;-inkscape-font-specification:Intro Cond Bold Italic"
           id="path3539"
           inkscape:connector-curvature="0" />
        <path
           d="M 213.0238,-68.055913 C 207.37735,-39.823602 219.72078,-21.045785 244.01372,-21.045785 272.50865,-21.045785 287.87234,-45.207446 291.54909,-74.358947 L 254.65008,-74.358947 250.71067,-54.136714 264.62987,-54.136714 C 260.55916,-45.338738 254.78138,-42.975093 248.47834,-42.975093 237.97331,-42.975093 232.9834,-53.086224 236.0036,-68.187227 239.15511,-83.68217 247.16525,-93.924614 258.58946,-93.924614 265.28645,-93.924614 269.61978,-91.16703 270.53898,-83.813497 L 292.59959,-83.813497 C 293.12484,-106.39935 278.41776,-115.45998 262.92282,-115.45998 239.68039,-115.45998 218.67025,-96.55085 213.0238,-68.055913"
           style="font-size:63.50114059px;font-style:italic;font-variant:normal;font-weight:bold;font-stretch:normal;line-height:125%;letter-spacing:0px;word-spacing:0px;fill:#d0b761;fill-opacity:1;stroke:none;font-family:Intro Cond;-inkscape-font-specification:Intro Cond Bold Italic"
           id="path3541"
           inkscape:connector-curvature="0" />
        <path
           d="M 329.43093,-93.268047 356.21882,-93.268047 360.42085,-114.14685 311.04712,-114.14685 292.66326,-22.227604 343.08753,-22.227604 347.42086,-44.156909 319.58248,-44.156909 322.60265,-59.126616 347.02691,-59.126616 351.22894,-80.136727 326.80468,-80.136727 329.43093,-93.268047"
           style="font-size:63.50114059px;font-style:italic;font-variant:normal;font-weight:bold;font-stretch:normal;line-height:125%;letter-spacing:0px;word-spacing:0px;fill:#d0b761;fill-opacity:1;stroke:none;font-family:Intro Cond;-inkscape-font-specification:Intro Cond Bold Italic"
           id="path3543"
           inkscape:connector-curvature="0" />
      </g>
    </g>
  </g>
</svg>
